<svg id="visual" viewBox="0 0 900 600" width="900" height="600" xmlns="http://www.w3.org/2000/svg" xmlns:xlink="http://www.w3.org/1999/xlink" version="1.1"><rect x="0" y="0" width="900" height="600" fill="#00001F"></rect><defs><linearGradient id="grad1_0" x1="33.3%" y1="0%" x2="100%" y2="100%"><stop offset="20%" stop-color="#00001f" stop-opacity="1"></stop><stop offset="80%" stop-color="#00001f" stop-opacity="1"></stop></linearGradient></defs><defs><linearGradient id="grad2_0" x1="0%" y1="0%" x2="66.7%" y2="100%"><stop offset="20%" stop-color="#00001f" stop-opacity="1"></stop><stop offset="80%" stop-color="#00001f" stop-opacity="1"></stop></linearGradient></defs><g transform="translate(900, 0)"><path d="M0 486.7C-47.8 443.8 -95.5 400.8 -159.2 384.3C-222.9 367.8 -302.4 377.8 -344.2 344.2C-386 310.6 -390 233.4 -407.4 168.8C-424.9 104.1 -455.8 52.1 -486.7 0L0 0Z" fill="#ffff00"></path></g><g transform="translate(0, 600)"><path d="M0 -486.7C71.2 -487.9 142.4 -489 186.3 -449.7C230.2 -410.4 246.9 -330.7 280 -280C313.2 -229.3 362.8 -207.5 400 -165.7C437.2 -123.9 462 -61.9 486.7 0L0 0Z" fill="#ffff00"></path></g></svg>